<?xml version="1.0" standalone="no"?>
<!DOCTYPE svg PUBLIC "-//W3C//DTD SVG 20010904//EN"
 "http://www.w3.org/TR/2001/REC-SVG-20010904/DTD/svg10.dtd">
<svg version="1.0" xmlns="http://www.w3.org/2000/svg"
 width="700.000000pt" height="700.000000pt" viewBox="0 0 700.000000 700.000000"
 preserveAspectRatio="xMidYMid meet">
<metadata>
Created by potrace 1.14, written by Peter Selinger 2001-2017
</metadata>
<g transform="translate(0.000000,700.000000) scale(0.100000,-0.100000)"
fill="#000000" stroke="none">
<path d="M2475 6336 c-402 -132 -814 -381 -1118 -675 -336 -326 -585 -722
-753 -1196 -39 -113 -92 -298 -109 -390 -5 -22 -9 -44 -11 -50 -3 -12 -10 -56
-19 -115 -4 -25 -9 -54 -11 -65 -19 -103 -26 -546 -11 -680 22 -187 57 -371
98 -510 117 -392 262 -684 505 -1012 283 -381 607 -660 1017 -872 376 -195
783 -312 1207 -346 82 -7 356 -7 435 0 178 15 198 17 484 71 14 3 28 7 31 9 4
2 20 6 36 9 49 9 281 85 389 128 214 85 480 231 665 366 41 31 77 58 80 61 3
4 25 22 50 41 88 68 251 225 356 345 291 331 498 706 643 1165 31 101 76 291
87 375 4 28 8 58 10 67 3 22 14 127 19 198 6 76 6 379 1 410 -3 14 -7 58 -11
99 -3 41 -8 77 -10 80 -1 3 -6 31 -10 61 -4 30 -9 58 -11 61 -2 4 -6 24 -10
44 -10 66 -63 266 -101 380 -239 730 -656 1269 -1286 1665 -167 105 -434 228
-612 283 -86 26 -102 28 -115 12 -20 -24 -69 -199 -59 -209 5 -5 45 -20 90
-33 212 -61 536 -209 704 -321 277 -185 537 -445 723 -721 212 -315 411 -834
456 -1186 5 -37 15 -108 22 -155 17 -110 11 -482 -9 -605 -3 -16 -11 -64 -17
-105 -57 -363 -228 -788 -459 -1140 -73 -111 -185 -249 -250 -305 -40 -35 -35
-23 33 78 48 72 58 99 29 76 -48 -36 -84 -67 -149 -126 -95 -85 -271 -224
-359 -283 -127 -85 -258 -157 -415 -228 -171 -77 -520 -171 -730 -197 -25 -3
-61 -8 -80 -11 -72 -10 -262 -26 -315 -26 -82 0 -75 -9 -75 102 0 109 14 161
49 179 26 15 146 37 191 37 31 -1 35 -4 33 -26 -13 -180 -15 -240 -5 -240 14
0 31 54 47 155 13 76 29 136 38 142 5 3 33 7 61 8 l52 3 -3 -97 c-2 -53 -5
-117 -7 -143 -2 -30 1 -49 8 -49 136 -18 584 146 884 323 633 372 1056 918
1227 1582 29 116 31 121 52 251 17 108 24 493 11 640 -15 169 -72 432 -134
615 -38 112 -200 452 -268 560 -52 84 -166 243 -180 252 -17 11 -19 2 -8 -31
6 -16 8 -32 5 -35 -4 -3 -74 61 -157 142 -330 324 -614 505 -1035 663 -57 21
-109 39 -116 39 -13 0 -38 -53 -49 -106 -7 -30 -6 -31 29 -32 144 -5 561 -216
830 -418 158 -119 184 -142 341 -299 171 -171 254 -280 333 -439 86 -174 197
-472 227 -611 39 -183 57 -359 57 -560 0 -125 -10 -325 -18 -358 -3 -12 -7
-35 -9 -52 -12 -88 -22 -132 -57 -259 -22 -76 -45 -150 -53 -163 l-13 -26 -22
24 c-73 77 -215 266 -280 371 l-40 68 21 47 c27 63 26 119 -5 225 -65 216
-153 325 -317 392 -38 15 -70 32 -70 36 0 4 57 22 126 39 384 96 507 209 529
486 3 36 2 65 -3 65 -5 0 -19 -19 -32 -42 -38 -68 -38 -69 -185 -123 -96 -36
-233 -101 -285 -136 -109 -73 -328 -199 -345 -199 -12 0 -30 6 -40 14 -19 13
-18 15 13 44 51 48 254 200 402 302 220 151 261 188 286 258 21 59 16 322 -5
322 -4 0 -17 -20 -29 -44 -17 -36 -35 -52 -94 -87 -209 -120 -263 -163 -642
-503 -109 -98 -195 -166 -209 -166 -7 0 -36 17 -64 39 -29 21 -86 53 -127 70
-42 17 -111 45 -153 63 -103 42 -133 75 -166 180 -15 46 -29 101 -32 123 -3
22 -8 52 -11 66 -5 24 2 32 52 65 32 22 70 50 84 64 l27 25 -17 85 c-22 106
-18 158 21 340 61 280 45 395 -92 687 -22 48 -53 126 -68 172 -15 46 -34 87
-42 91 -8 5 -97 23 -199 41 -197 34 -394 45 -500 28 -30 -5 -70 -11 -89 -14
-151 -24 -355 -108 -499 -207 -42 -28 -80 -47 -88 -44 -9 3 -13 9 -10 14 2 4
1 14 -3 21 -10 16 -33 10 -206 -59 -383 -152 -571 -279 -927 -629 -180 -176
-189 -183 -180 -136 2 14 2 25 -2 25 -14 0 -167 -248 -233 -375 -158 -310
-280 -689 -308 -955 -4 -36 -9 -81 -12 -100 -9 -63 -10 -333 -2 -425 9 -100
13 -130 28 -225 17 -99 21 -119 42 -200 47 -177 84 -278 177 -480 47 -102 180
-314 258 -410 358 -441 833 -773 1350 -944 44 -14 89 -28 100 -30 10 -2 46
-11 79 -19 33 -8 81 -18 107 -21 58 -6 71 10 64 76 -3 24 -8 74 -11 112 -3 38
-6 72 -7 75 -3 26 5 30 49 25 27 -2 53 -10 60 -17 7 -7 26 -73 43 -147 38
-167 55 -191 46 -65 -3 50 -9 116 -12 148 l-6 57 38 -6 c21 -3 77 -16 124 -28
104 -26 107 -31 116 -178 8 -123 5 -126 -81 -123 -62 2 -244 16 -266 20 -8 2
-40 6 -70 9 -196 21 -466 85 -669 158 -232 83 -520 254 -719 425 -25 21 -103
89 -174 150 -118 103 -161 133 -141 101 5 -7 32 -51 61 -97 29 -47 53 -89 53
-95 0 -36 -278 290 -357 419 -199 325 -329 649 -403 1010 -11 51 -22 122 -25
157 -4 35 -9 74 -11 88 -6 31 -6 434 0 475 2 17 7 68 11 115 8 97 36 250 65
360 12 41 22 82 25 90 57 226 216 577 363 801 222 337 477 586 822 801 174
109 443 226 617 270 65 16 74 24 67 62 -9 55 -35 150 -47 173 l-12 22 -100
-33z m1387 -342 c46 -14 51 -19 77 -74 33 -69 32 -116 -1 -163 -12 -16 -73
-63 -137 -105 -187 -121 -222 -173 -215 -319 10 -214 184 -283 459 -184 28 10
58 15 68 12 16 -6 12 -13 -30 -46 -101 -82 -165 -161 -207 -258 -25 -55 -56
-169 -63 -227 -9 -84 -25 -126 -61 -162 -20 -21 -40 -38 -45 -38 -4 0 -83 -43
-175 -96 -214 -124 -226 -131 -292 -167 -30 -16 -74 -40 -97 -53 -23 -13 -44
-24 -46 -24 -3 0 -27 30 -53 68 -27 37 -54 73 -61 80 -7 8 -26 30 -41 49 -39
52 -101 112 -144 139 -43 28 -60 70 -60 157 -1 77 9 124 27 130 7 3 44 -15 82
-40 90 -60 222 -123 270 -130 76 -10 284 68 358 135 86 77 140 272 102 365
-26 62 -168 148 -244 149 -60 0 -201 -66 -436 -204 -195 -114 -228 -122 -272
-64 -79 103 -90 320 -29 561 17 66 95 238 113 249 14 9 14 9 -8 -65 -42 -137
-54 -196 -63 -309 -2 -22 11 -31 77 -55 42 -16 77 -26 79 -24 3 2 7 35 10 72
22 235 224 495 464 596 118 49 186 60 370 60 123 0 188 -5 224 -15z m-1290
-311 c-83 -165 -111 -296 -107 -503 5 -216 21 -273 94 -322 25 -18 51 -39 58
-47 16 -20 16 -56 1 -80 -9 -15 -9 -34 1 -83 19 -98 19 -99 52 -209 90 -305
94 -281 -56 -333 -141 -50 -160 -59 -201 -98 -32 -30 -32 -30 -65 -12 -63 32
-132 88 -329 264 -41 37 -93 82 -115 101 -22 19 -49 43 -60 54 -11 11 -49 44
-85 73 -36 30 -73 60 -82 67 -10 8 -72 47 -138 87 -94 56 -126 82 -143 111
-11 20 -24 37 -28 37 -13 0 -27 -114 -25 -200 3 -126 29 -169 154 -263 32 -23
62 -46 69 -52 6 -5 64 -46 128 -90 250 -171 415 -297 415 -316 0 -12 -42 -15
-83 -7 -21 5 -115 55 -210 111 -200 120 -342 194 -445 231 -127 45 -163 73
-177 137 -12 55 -30 26 -29 -48 1 -160 76 -303 192 -368 72 -41 197 -81 367
-119 87 -19 159 -37 162 -39 2 -3 -27 -17 -66 -32 -154 -58 -221 -143 -296
-375 -37 -111 -38 -189 -6 -251 l23 -46 -43 -86 c-23 -48 -68 -122 -98 -166
-127 -182 -244 -341 -251 -341 -19 0 -119 312 -155 480 -1 3 -4 27 -9 53 -4
27 -9 56 -10 65 -4 18 -11 70 -22 157 -13 96 -7 405 10 525 2 14 7 52 11 85 9
79 57 279 90 379 59 179 189 453 277 586 145 217 494 550 750 716 151 99 508
274 516 254 2 -5 -15 -44 -36 -87z m721 -770 c49 -56 -2 -136 -103 -163 -57
-15 -182 -15 -212 1 -53 28 -43 53 41 97 141 76 242 99 274 65z m805 -876 c26
-58 60 -91 137 -129 72 -36 127 -76 120 -88 -7 -12 -89 -25 -213 -35 -90 -6
-107 7 -117 90 -7 49 0 244 9 300 2 11 5 27 6 35 1 8 10 -17 20 -55 9 -39 27
-92 38 -118z m-297 -42 c6 -27 25 -101 42 -164 30 -111 30 -113 11 -125 -26
-15 -80 -35 -136 -51 -56 -15 -55 -20 -29 90 11 44 29 132 41 195 12 63 24
118 27 123 10 16 32 -18 44 -68z m-1051 -184 c-53 -28 -75 -32 -53 -10 11 11
81 38 98 38 6 0 -15 -13 -45 -28z m2046 -106 c12 -7 24 -25 26 -39 6 -29 3
-123 -6 -190 -3 -25 -9 -67 -12 -93 -3 -27 -7 -55 -9 -63 -2 -8 -7 -31 -10
-50 -22 -132 -77 -308 -106 -339 -18 -19 -28 -22 -60 -17 -21 3 -50 11 -65 16
-28 11 -29 18 -10 130 9 49 17 106 22 150 3 25 7 56 9 70 3 14 7 54 11 90 3
36 7 76 9 90 2 14 7 65 10 115 8 106 17 133 47 144 31 12 118 4 144 -14z
m-2389 7 c16 -5 25 -50 28 -141 6 -162 17 -313 31 -426 4 -33 8 -94 8 -135 l1
-75 -45 -11 c-27 -7 -52 -8 -62 -2 -15 7 -50 98 -62 162 -2 11 -9 41 -15 66
-11 49 -30 162 -37 225 -3 22 -7 51 -9 65 -13 75 -16 209 -5 230 20 38 112 62
167 42z m2689 -93 c155 -73 243 -232 232 -417 -7 -111 -26 -146 -115 -201 -41
-26 -73 -53 -73 -62 0 -14 68 -69 85 -69 12 0 76 -54 86 -72 6 -11 17 -44 25
-74 18 -71 44 -122 143 -277 45 -71 102 -166 126 -211 l45 -82 -20 -40 c-21
-42 -131 -183 -174 -223 l-26 -24 -93 94 c-178 180 -265 297 -342 462 -49 105
-60 145 -51 192 8 42 65 101 137 143 l54 31 -37 15 c-50 21 -68 42 -68 81 0
31 -2 33 -32 29 -82 -9 -147 -11 -157 -5 -7 5 7 62 44 175 34 101 69 237 90
344 43 217 44 222 51 222 3 0 35 -14 70 -31z m-3036 -7 c1 -9 18 -142 26 -197
9 -67 50 -233 88 -362 20 -67 36 -130 36 -138 0 -14 -11 -16 -85 -10 -75 5
-96 1 -83 -17 7 -11 -31 -54 -68 -77 -47 -30 -46 -34 11 -61 55 -27 96 -63
117 -104 18 -35 19 -45 9 -91 -31 -138 -203 -397 -394 -593 -92 -94 -102 -100
-115 -64 -6 15 -27 112 -47 215 l-37 188 28 52 c14 29 52 95 83 147 64 107
103 188 122 248 14 50 55 90 133 134 33 18 61 38 63 43 1 6 -18 23 -45 39
-121 74 -160 143 -149 263 10 106 30 166 82 248 59 92 170 174 207 154 10 -5
18 -13 18 -17z m719 -8 c48 -8 630 -150 635 -155 11 -11 21 -161 30 -484 4
-103 1 -114 -22 -109 -9 2 -164 40 -343 83 -179 44 -354 85 -389 90 -35 6 -71
17 -79 26 -22 21 -20 86 8 295 6 41 13 98 16 125 3 28 8 59 10 70 2 11 4 33 4
49 1 31 1 31 130 10z m1605 -1 c22 -80 49 -514 33 -540 -4 -6 -24 -14 -44 -18
-21 -5 -42 -9 -48 -11 -5 -1 -35 -7 -65 -13 -85 -17 -86 -17 -245 -54 -82 -19
-204 -50 -270 -68 -66 -18 -135 -33 -154 -33 -30 -1 -35 3 -42 28 -9 31 -9
489 -1 532 3 17 14 26 41 34 40 10 391 88 571 125 63 13 124 26 135 28 50 11
84 7 89 -10z m1 -693 c5 -8 -89 -392 -104 -427 -10 -21 -49 -37 -121 -50 -14
-2 -41 -8 -60 -13 -44 -11 -462 -97 -512 -105 -29 -5 -39 -2 -46 12 -5 10 -8
98 -7 196 2 137 6 182 16 193 12 11 330 104 404 118 11 2 85 20 165 39 80 19
163 39 185 44 40 9 72 7 80 -7z m-1536 -31 c97 -22 183 -42 191 -44 8 -1 35
-8 60 -15 25 -7 54 -14 65 -16 66 -12 259 -74 266 -86 5 -7 9 -29 10 -48 0
-19 2 -42 3 -50 2 -8 6 -81 10 -163 l7 -147 -43 4 c-33 3 -307 57 -408 81
-271 62 -275 64 -294 123 -20 60 -96 369 -96 388 0 22 37 17 229 -27z m-318
-149 c39 -112 68 -222 62 -237 -7 -17 -56 -16 -96 1 -56 24 -82 60 -118 167
-31 93 -32 103 -18 127 19 36 74 54 112 38 24 -9 34 -25 58 -96z m2104 88 c14
-6 28 -21 31 -34 9 -34 -45 -198 -77 -237 -29 -35 -99 -67 -147 -67 -23 0 -24
2 -19 48 9 78 75 269 100 287 26 18 76 20 112 3z m1000 -391 c57 -80 75 -112
75 -139 0 -34 -20 -80 -33 -75 -6 2 -21 39 -34 83 -13 43 -30 100 -38 127 -8
26 -11 47 -7 47 4 -1 21 -20 37 -43z m-1124 -120 c-26 -113 -77 -171 -171
-192 l-33 -7 6 48 c7 59 41 154 65 181 21 25 58 44 97 53 41 9 52 -14 36 -83z
m-1904 47 c34 -21 61 -86 94 -224 6 -25 -37 -23 -95 3 l-55 25 -24 79 c-14 43
-28 93 -32 112 l-7 34 48 -7 c27 -4 59 -14 71 -22z m353 -83 c33 -24 48 -57
64 -140 16 -84 10 -100 -41 -95 -73 7 -116 14 -121 19 -9 9 -42 161 -42 197 0
20 6 39 13 41 24 10 102 -4 127 -22z m1231 13 c12 -7 -13 -131 -38 -191 -16
-39 -36 -51 -100 -59 -88 -10 -88 -10 -87 11 4 106 36 205 72 224 45 24 126
32 153 15z m-921 -64 c47 -12 92 -23 100 -25 30 -6 68 -24 75 -35 10 -17 17
-193 8 -207 -6 -8 -22 -9 -58 -2 -28 6 -61 12 -75 15 -14 2 -67 14 -117 25
l-93 21 -9 36 c-5 20 -13 64 -17 97 -3 33 -8 69 -10 79 -2 10 -1 22 1 26 6 10
95 -4 195 -30z m666 28 c1 -2 -1 -21 -6 -43 -5 -22 -12 -62 -15 -90 -8 -59
-35 -121 -52 -118 -11 2 -67 -7 -203 -33 -19 -4 -55 -7 -80 -8 l-45 -1 1 55
c2 88 7 149 14 160 17 28 366 97 386 78z m489 -225 c-17 -83 -55 -214 -68
-235 -11 -17 -113 -68 -137 -68 -14 0 -10 35 20 150 33 129 42 143 113 178 36
18 66 27 71 22 5 -5 5 -26 1 -47z m-1760 13 c49 -29 74 -76 104 -192 28 -106
27 -123 -1 -119 -59 7 -120 52 -139 102 -17 46 -57 222 -51 228 12 11 47 4 87
-19z m328 -77 c47 -21 77 -113 82 -245 l2 -74 -36 0 c-61 0 -82 18 -107 90
-12 36 -28 100 -35 143 -11 68 -11 80 1 87 20 13 64 12 93 -1z m1106 2 c16
-10 10 -74 -16 -180 -28 -115 -54 -147 -114 -137 -54 8 -61 22 -54 95 8 81 22
139 41 169 31 48 107 76 143 53z m-879 -36 c72 -14 90 -18 148 -37 50 -16 65
-26 73 -47 13 -33 24 -281 13 -281 -22 0 -282 52 -293 59 -12 8 -21 62 -37
201 -13 121 -12 122 34 115 21 -3 49 -7 62 -10z m644 6 c12 -1 -6 -295 -19
-309 -3 -3 -213 -47 -267 -56 -22 -3 -40 -1 -44 5 -10 16 -6 233 5 262 6 14
19 31 30 37 31 16 244 68 266 65 11 -2 24 -4 29 -4z m-1127 -272 c26 -10 66
-63 81 -107 13 -39 27 -152 19 -152 -10 0 -100 51 -118 66 -20 18 -36 71 -45
153 l-7 63 24 -7 c13 -4 34 -11 46 -16z m1588 -21 c-23 -153 -27 -161 -85
-195 -74 -45 -84 -44 -75 10 4 23 16 70 27 105 16 52 26 68 60 92 23 17 50 30
60 30 17 0 18 -5 13 -42z m-1263 -90 c15 -5 34 -25 43 -44 20 -44 30 -151 16
-186 -9 -24 -16 -28 -50 -28 -57 0 -79 35 -93 148 -7 49 -9 95 -6 104 7 18 51
21 90 6z m973 0 c9 -23 -32 -230 -46 -239 -21 -13 -103 -11 -117 3 -16 16 -15
72 3 143 23 85 38 99 116 104 25 1 41 -3 44 -11z m-667 -43 c74 -22 84 -42 86
-172 l1 -108 -42 -3 c-39 -3 -182 29 -210 46 -7 4 -14 39 -18 77 -3 39 -8 96
-11 129 l-5 58 74 -6 c41 -3 97 -13 125 -21z m449 -22 c-4 -27 -9 -77 -13
-113 -4 -36 -8 -72 -10 -80 -1 -8 -3 -18 -3 -21 -1 -9 -124 -40 -191 -48 l-59
-7 3 115 c2 64 5 126 5 137 1 17 10 24 39 29 20 5 42 9 47 11 40 11 107 22
144 23 l44 1 -6 -47z m-1052 -105 c61 -40 92 -97 101 -188 3 -36 7 -77 9 -92
3 -32 -13 -35 -76 -16 -69 20 -73 30 -84 197 -4 57 -9 110 -12 117 -8 22 8 17
62 -18z m1519 -105 c-4 -76 -10 -145 -15 -154 -9 -18 -86 -43 -115 -37 -16 3
-19 13 -20 63 -1 101 13 159 48 194 25 25 87 67 105 71 2 0 0 -62 -3 -137z"/>
</g>
</svg>
